<?xml version="1.0" encoding="UTF-8"?>
<svg id="Calque_1" data-name="Calque 1" xmlns="http://www.w3.org/2000/svg" viewBox="0 0 1639.15 563.55">
  <defs>
    <style>
      .cls-1 {
        fill: #a882dd;
      }

      .cls-2 {
        fill: #353535;
      }
    </style>
  </defs>
  <path class="cls-2" d="M435.56,559.25V182.76h40.34v149.52c9.69-12.91,21.51-23.84,35.5-32.81,13.98-8.96,31.91-13.45,53.78-13.45,18.65,0,36.13,4.4,52.44,13.18,16.31,8.79,29.58,21.87,39.8,39.26,10.22,17.4,15.33,38.82,15.33,64.27v156.51h-40.34v-155.44c0-24.38-6.99-44.01-20.98-58.89-13.98-14.87-32.09-22.32-54.32-22.32-15.05,0-28.69,3.41-40.87,10.22-12.2,6.81-21.97,16.4-29.31,28.77-7.35,12.37-11.03,26.62-11.03,42.76v154.9h-40.34Z"/>
  <path class="cls-2" d="M859.38,563.55c-27.25,0-51.1-6.18-71.53-18.56-20.44-12.37-36.3-29.12-47.6-50.29-11.3-21.15-16.94-44.46-16.94-69.92s5.38-49.22,16.14-70.19c10.76-20.98,26.17-37.65,46.25-50.02,20.07-12.37,43.74-18.56,70.99-18.56s51.37,6.18,71.26,18.56c19.91,12.37,35.23,29.04,45.99,50.02,10.76,20.97,16.14,44.37,16.14,70.19v16.14h-225.36c2.15,15.78,7.26,30.21,15.33,43.3,8.07,13.09,18.91,23.49,32.54,31.19,13.62,7.72,29.39,11.57,47.33,11.57,18.99,0,34.96-4.21,47.86-12.64,12.91-8.42,22.94-19.27,30.13-32.54h44.1c-9.33,24.03-24.12,43.66-44.37,58.9-20.26,15.25-46.35,22.86-78.26,22.86ZM765.26,403.27h182.87c-3.58-22.94-13.27-42.13-29.04-57.55-15.79-15.41-36.58-23.13-62.4-23.13s-46.52,7.72-62.12,23.13c-15.6,15.42-25.37,34.61-29.32,57.55Z"/>
  <rect class="cls-2" x="309.52" width="40.51" height="560.54"/>
  <polygon class="cls-2" points="40.5 109.16 40.5 304.82 197.82 304.82 197.82 345.33 40.5 345.33 40.5 521.21 262.55 521.21 262.55 560.57 0 560.57 0 68.66 556.26 68.66 556.26 109.16 40.5 109.16"/>
  <polygon class="cls-1" points="1346.67 557.48 1346.03 557.48 1346.67 558.67 1306.12 558.67 1080.12 140.65 1080.12 557.48 1039.56 557.48 1039.56 65.67 1080.33 65.67 1306.12 483.58 1306.12 65.67 1346.67 65.67 1346.67 557.48"/>
  <polygon class="cls-1" points="1639.15 518.09 1639.15 558.63 1396.15 558.63 1396.15 65.71 1436.7 65.71 1436.7 518.09 1639.15 518.09"/>
  <path class="cls-2" d="M1039.56,559.25v-268.92h40.34v66.15c1.43-4.65,4.21-10.84,8.34-18.56,4.12-7.71,10.13-15.51,18.02-23.39,7.88-7.88,17.83-14.61,29.84-20.17,12.02-5.56,26.26-8.34,42.77-8.34h2.69v40.34h-4.84c-20.09,0-37.38,5.47-51.9,16.4-14.52,10.94-25.64,25.1-33.34,42.49-7.72,17.4-11.57,35.95-11.57,55.67v118.33h-40.34Z"/>
</svg>