<?xml version="1.0" encoding="UTF-8"?>
<svg id="Calque_1" data-name="Calque 1" xmlns="http://www.w3.org/2000/svg" xmlns:xlink="http://www.w3.org/1999/xlink" viewBox="0 0 3840 2160">
  <defs>
    <style>
      .cls-1 {
        stroke: #fff;
        stroke-width: 30.72px;
      }

      .cls-1, .cls-2, .cls-3, .cls-4, .cls-5 {
        stroke-miterlimit: 10;
      }

      .cls-1, .cls-2, .cls-3, .cls-6 {
        fill: #a882dd;
      }

      .cls-7, .cls-5 {
        fill: #fff;
      }

      .cls-2 {
        stroke-width: 4.46px;
      }

      .cls-2, .cls-3, .cls-4, .cls-5 {
        stroke: #a882dd;
      }

      .cls-8 {
        fill: url(#Dégradé_sans_nom_71);
      }

      .cls-9 {
        fill: url(#Dégradé_sans_nom_2);
      }

      .cls-3 {
        stroke-width: 3.91px;
      }

      .cls-10 {
        fill: url(#Dégradé_sans_nom_76);
      }

      .cls-4 {
        fill: #f8f2fc;
        stroke-width: 15.36px;
      }

      .cls-11 {
        fill: #353535;
      }

      .cls-5 {
        filter: url(#outer-glow-3);
        stroke-width: 17.56px;
      }
    </style>
    <linearGradient id="Dégradé_sans_nom_2" data-name="Dégradé sans nom 2" x1="-1995.88" y1="1146.76" x2="-1995.88" y2="2160" gradientUnits="userSpaceOnUse">
      <stop offset="0" stop-color="#a882dd"/>
      <stop offset=".17" stop-color="#a683dd" stop-opacity=".99"/>
      <stop offset=".3" stop-color="#a187dd" stop-opacity=".94"/>
      <stop offset=".41" stop-color="#9a8ddf" stop-opacity=".87"/>
      <stop offset=".52" stop-color="#8f97e0" stop-opacity=".77"/>
      <stop offset=".62" stop-color="#81a3e2" stop-opacity=".64"/>
      <stop offset=".71" stop-color="#6fb2e5" stop-opacity=".47"/>
      <stop offset=".81" stop-color="#5ac4e8" stop-opacity=".28"/>
      <stop offset=".89" stop-color="#43d8ec" stop-opacity=".06"/>
      <stop offset=".91" stop-color="#3ddeed" stop-opacity="0"/>
    </linearGradient>
    <filter id="outer-glow-3" x="1500.31" y="859.29" width="922" height="922" filterUnits="userSpaceOnUse">
      <feOffset dx="0" dy="0"/>
      <feGaussianBlur result="blur" stdDeviation="31.23"/>
      <feFlood flood-color="#a882dd" flood-opacity="1"/>
      <feComposite in2="blur" operator="in"/>
      <feComposite in="SourceGraphic"/>
    </filter>
    <linearGradient id="Dégradé_sans_nom_76" data-name="Dégradé sans nom 76" x1="1919.62" y1="2157.01" x2="1919.62" y2="1320.37" gradientUnits="userSpaceOnUse">
      <stop offset="0" stop-color="#fff"/>
      <stop offset=".12" stop-color="#fff" stop-opacity=".78"/>
      <stop offset=".24" stop-color="#fff" stop-opacity=".58"/>
      <stop offset=".37" stop-color="#fff" stop-opacity=".4"/>
      <stop offset=".5" stop-color="#fff" stop-opacity=".26"/>
      <stop offset=".63" stop-color="#fff" stop-opacity=".14"/>
      <stop offset=".75" stop-color="#fff" stop-opacity=".06"/>
      <stop offset=".88" stop-color="#fff" stop-opacity=".02"/>
      <stop offset="1" stop-color="#fff" stop-opacity="0"/>
    </linearGradient>
    <linearGradient id="Dégradé_sans_nom_71" data-name="Dégradé sans nom 71" x1="1937.4" y1="1235.23" x2="1937.4" y2="696" gradientUnits="userSpaceOnUse">
      <stop offset="0" stop-color="#fff"/>
      <stop offset=".22" stop-color="#fff" stop-opacity=".76"/>
      <stop offset=".6" stop-color="#fff" stop-opacity=".36"/>
      <stop offset=".87" stop-color="#fff" stop-opacity=".1"/>
      <stop offset="1" stop-color="#fff" stop-opacity="0"/>
    </linearGradient>
  </defs>
  <polygon class="cls-9" points="-48.2 1420.46 -437.74 1178.96 -633.62 1388.26 -1479.49 1629.76 -2235.38 1311.79 -3265.67 1146.76 -3915.69 1476.81 -4015.09 2160 23.32 2156.1 -48.2 1420.46"/>
  <g>
    <circle class="cls-5" cx="1961.21" cy="1320.37" r="357.63"/>
    <path class="cls-6" d="M2174.3,1124.26c-3.39,9.59-7.43,18.34-11.75,27.32-1.45,2.88-2.88,5.78-4.37,8.61-.41.67-.91,1.24-1.5,1.71-1.88,1.26-3.65,2.69-5.27,4.29,0,0-6.66,6.13-6.66,6.13l-13.32,12.26c-38.42,35.35-94.91,87.35-133.18,122.57-12.05,4.86-24.4,9.69-37.04,13.21,4.56-12.29,10.37-24.19,16.24-35.82,38.21-35.17,94.82-87.26,133.18-122.57,0,0,13.32-12.26,13.32-12.26l6.66-6.13c1.69-1.45,3.29-3.11,4.72-4.9.52-.55,1.13-1,1.83-1.35,2.95-1.25,5.96-2.44,8.95-3.64,9.31-3.56,18.36-6.86,28.2-9.45h0Z"/>
    <path class="cls-6" d="M1964.41,1320.37c8.28,2.11,15.68,4.85,23.4,7.88,2.44,1.02,4.9,2.02,7.3,3.07.56.3,1.02.69,1.38,1.17.69.97,1.22,2.1,2.09,2.94,0,0,1.2,1.33,1.2,1.33l4.79,5.33,9.57,10.66c27.6,30.77,68.22,75.99,95.73,106.63,3.06,10.35,5.98,20.79,7.72,31.59-10.54-2.88-20.61-6.9-30.57-11.07-27.47-30.59-68.15-75.92-95.73-106.63,0,0-9.57-10.66-9.57-10.66l-4.79-5.33-1.2-1.33c-.74-.95-1.81-1.6-2.7-2.39-.44-.41-.78-.91-1.02-1.5-.79-2.5-1.52-5.05-2.27-7.59-2.18-8-4.11-15.65-5.32-24.11h0Z"/>
    <circle class="cls-1" cx="1961.21" cy="1320.37" r="35.6"/>
    <g>
      <line class="cls-4" x1="1958.62" y1="1639.49" x2="1958.85" y2="1610.76"/>
      <line class="cls-4" x1="1733.73" y1="1544.19" x2="1754.2" y2="1524.04"/>
      <line class="cls-4" x1="1642.09" y1="1317.78" x2="1670.81" y2="1318.01"/>
      <line class="cls-4" x1="1737.39" y1="1092.89" x2="1757.53" y2="1113.37"/>
      <line class="cls-4" x1="1963.8" y1="1001.26" x2="1963.56" y2="1029.98"/>
      <line class="cls-4" x1="2188.69" y1="1096.55" x2="2168.21" y2="1116.7"/>
      <line class="cls-4" x1="2280.32" y1="1322.96" x2="2251.6" y2="1322.73"/>
      <line class="cls-4" x1="2185.02" y1="1547.85" x2="2164.88" y2="1527.38"/>
    </g>
  </g>
  <g>
    <path class="cls-6" d="M518.32,2157.01c-10.83-11.23-22.17-24.05-34.55-33.56-37.42-28.73-92.12-68.57-135.73-84.98-39.25-14.77-72.27-18.86-114.26-15.82-68.18,4.94-141.23,31.6-184.95,85.25,1.84-39.49,28.12-80.99,62.77-100.52,39.16-22.07,77.29-5.66,118.8-34.6,40.93-28.54,53.56-62.84,65.89-109.05,21.29-79.78,29.6-151.85,82.72-218.97,83.56-105.59,181.85-143.99,317.13-136.4,10.12.57,26.88,5.58,35.08,5.28,4.94-.18,13.88-3.93,19.95-4.85,37.13-5.67,71.38-1.4,104.03,17.49,21.2,12.27,44.08,32.72,46.02,58.36,13.32-1.24,29.42,2.08,42.34,6.44,21.28,7.18,56.33,33,56.39,57.51.06,25.91-25.73.96-35.28,2.18-8.17,1.05-12.3,10.1-9.08,17.52,2.37,5.47,25.88,11.68,32.93,15.12,33.23,16.2,70.13,55.37,55.23,94.98-1.85,4.91-1.63,6.16-7.64,5.12-8.17-1.4-12.54-16.83-17.92-23.6-6.66-8.39-20.63-17.73-31.7-17.77-8.46-.03-6.23,4.55-3.47,10.02,11.48,22.73,32.81,30.96,35.43,63.04,1.05,12.82-3.8,40.74-19.39,23.12l-7.99-17.25c-1.59,16.34-4.72,32.6-11.1,47.78-5.52,13.14-15.65,32.02-31.88,32.32-2.47-10.36.43-19.73,0-30.38-.06-1.57.98-4.81-1.29-4.5-6.73,20.61-38.97,52.31-62.6,44.64-14.14-4.59,7-21.94,10.34-28.65,6.49-13.03,6.03-29.46.4-42.73-1.56-3.67-14.08-23.98-17.25-23.14-12.08,8.31-41.05,22.83-54.02,11.15-11.43-10.29,9.41-15.77,15.06-21.31,14.47-14.19-1.43-32.05-17.34-28.82-20.8,4.23-47.04,52.76-52.38,72.06-19.25,69.64,5.08,139.39,57.26,187.37,22.33,20.53,42.61,18.13,70.39,9.04,5.7-1.87,10.29-6.58,16.72-5.03,5.29,1.76-2.27,12.68,6.91,19,19.71,13.56,65.58-6.72,85.96-15.06,14.12-5.78,73.55-35.49,83.1-35.15.87.03,2.15-.38,1.96.68-2.88,3.79-17.48,25-9.58,27.6,15.29.87,32.17-8,45.15-15.57,23.66-13.8,45.67-34.46,61.32-56.74,8.83-12.57,14.38-26.91,24.22-38.62-2.05,26.12-19.97,53.05-36.49,72.96-70.51,84.96-188.48,124.58-295.58,88.55l9.53,5.38c62.54,27.57,153.4,35.67,212.28-4.32,106.64-72.42,151.46-212.61,254.91-288.46,75.94-55.68,171.79-68.91,261.96-41.7,23.48,7.08,88.91,33.73,105.9,48.69,3.31,2.92,10.29,8.86,9.09,12.95-2.48-1.84-4.67-5.6-7.26-7.01-88.29-47.82-198.15-31.12-282.9,17.6-94.77,54.48-152.08,145.98-241.42,208.82-89.65,63.05-166.21,104.6-280.1,72.93-130.91-36.4-223.29-181.04-151.65-308.76.64-1.14,2.87-3.24.93-4.25-32.44,29.93-36.96,71.2-34.57,113.1,4.39,77.01,55.94,141.31,119.19,181.5,42.03,26.71,92.35,39.12,141.32,46.5,2.09,2.78-23.98,9.29-26,9.72-12.34,2.63-25.99,4.26-38.57,4.42l-3.15,1.35h-411.53ZM712.36,1522.64c-82.9-17.1-175.92,7.16-243.94,55.78-60.58,43.3-117.02,122.87-139.85,193.3-28.72,88.6-18.81,142.77-92.18,213.47-1.27,1.23-2.46,1.69-1.97,3.84,28.02,4.33,53.04-14.33,68.78-35.76,4.45-6.05,22.7-39.04,25.75-40.35,1.19-.51,2.28-.58,3.24.67,3.03,3.94,5.95,13.92,9.25,19.01,9.55,14.78,28.58,21.34,33.56.35-3.35-3.79-7.12,1.4-13.51.47-18.21-2.64-18.86-46.58-17.52-59.87,1.14-11.33,11.84-44.89,25.22-46.12,9.04-.83,9.12,6.19,14.32,10.46,10.88,8.93,32.87,5.48,33.22-10.36-16.38,16.96-40.6-7.39-26.05-23.56,9.18-10.2,25.1-2.17,35.83-2.18,16.17-.02,29.61-11.92,34.5-26.6-4.03-1.1-8.15,1.57-12.37,1.93-33.16,2.89-49.78-39.39-36.07-65.49,4.63-8.81,14.59-14.31,23.68-7.46,3.11,2.34,2.57,5.59,5.22,7.07,1.96-8.33,9.86-20.46,18.98-21.87,16.77-2.59,17.66,11.17,28.74,16.54,8.39,4.06,19.7,1.64,28.18-1.41,2.37-.85,23.66-12.05,20.47-15.21-21.75,11.33-49.06-.26-43.96-27.48,1.16-6.17,8.55-15.79,14.61-17.8,8.83-2.94,21.45-.46,31.15-1.4,6.55-.63,18.57-2.9,20.35-10.16-25.6,3.42-27.67-19.41-1.93-21.96,13.91-1.38,23.2,1.86,33.82,10.35,10.66,8.52,20.56,24.44,35.84,24.51.13-3.09-2.91-4.31-3.62-7.37-2.18-9.35,3.53-18,13.45-18.52,18.89-.99,32.36,19.65,40.99,33.64,2.17-.61,1.39-4.38,2.75-6.94,5.92-11.17,16.72-3.64,22.52,3.18,15.28,17.97,25.77,47.27,54.16,48.97-5.38-5.66-9.13-17.42-.35-21.64,15.57-7.5,46.63,16.99,55.71,29.4,3.24.47,1.45-3.27,3.14-5.9,1.45-2.25,5.64-4.06,8.34-4.01,15.69.3,33.44,38.65,36.05,52.56,3.68.6,2.89-5.23,4.93-8.66,7.64-12.88,17.07,2.44,19.21,11.18,2.48,10.13,1.43,16.7.6,26.57-.12,1.41-.95,4.82,1.27,4.49,8.64-19.68,11.99-42.45,2.44-62.47-3.53-7.4-29.99-39.65-8.3-39.73,14.25-.05,37.11,25.9,44.3,37.6-.62-29.52-22.49-51.44-47.96-63.53-9.14-4.34-40.88-13.48-45.01-19.93-3.91-6.12-.11-11.99,5.84-14.59,19.51-8.54,55.5,4.54,70.2,19.25,1.8-.91.07-3.39-.58-4.6-9.98-18.68-39.53-31.71-59.67-35.12-6.86-1.16-26.73-.69-30.25-2.29-.99-.45-1.73-1.81-2.6-2.56,2.51-3.33,8.3-4.63,12.35-4.62,6.79.02,22.31,6.22,10.6-5.9-9.87-10.23-34.36-21-48.55-22.25-16.02-1.42-31.37,3.12-46.05,8.88-3.48-3.62,17.02-13.11,19.18-13.9,16.91-6.18,34.98-5.52,52.12-.64,5.51,1.57,21.43,10.31,25.08,6.18,7.47-23.89-33.8-37.58-51.79-40.41-40.18-6.31-64.34,2.31-94.71,26.85-4.41,3.56-7.31,10.05-13.7,9-1.25-7.04,4.03-11.09,7.75-16.2l24.79-18.66ZM623.8,1707.39c-13.1,4.04-23.39,19.83-30.48,31.12-33.51,53.32-29.48,113.77-16.38,173.02l2.57-.62c-4.61-19.33-4.89-40.91-3.94-60.8,1.54-32.19,8.96-63.79,21.97-93.2l26.26-49.52ZM532.63,2018.76c-5.94-16.71-16.69-31.68-23.66-48.22-22.31-52.98-33.95-132.75-18.94-188.5,2.72-10.09,7.75-19.05,10.43-28.41.38-1.32,1.93-4.1.27-4.9-20.12,16.41-26.64,49.27-28.06,74.23-3.34,58.68,11.19,117.18,40.68,167.77,5.48,9.4,12.32,19.9,19.27,28.03ZM716.27,1755.2c-34.09,14.33-55.51,52.85-58.44,88.66-5.46,66.76,19.15,127.12,64.94,174.9l-23.88-37.66c-39.54-69.82-47.41-168.25,17.38-225.9ZM1583.62,1769.41c-30.49-6.11-61.84.49-91.45,8.11-86.09,22.16-154.92,72.76-207.33,143.16-11.48,15.42-21.05,32.29-32.78,47.58-9.51,12.4-20.45,23.7-30.5,35.64-1.22,1.45-3.16,2.1-2.59,4.53,26.32-24.24,46.63-54.04,70.95-80.12,64.94-69.67,175.92-148.65,273.52-156.3,5.86-.46,12.62.7,18.24,0,1.79-.23,4.02-.9,1.94-2.58ZM442.77,2003.26c-5.13-11.32-11.7-22-16.25-33.61-10.61-27.09-19.08-71.72-16.45-100.28.13-1.44,1.18-4.64-1.14-4.34-8.89,21.72-6.74,44.56-1.73,66.94,5.67,25.31,18.03,52.05,35.56,71.3ZM1070.5,2023.94c-26.95,12.04-51.39,30.05-79.75,39.09-7.7,2.45-16.46,3.42-23.96,5.95-1.71.58-3.97.37-4.38,2.74,38.73-6.32,78.47-22.37,108.09-47.78ZM877.11,2060.11c-5.78.77-12.92-.56-18.88,0,1.05,2.06,7.7,2.62,9.73,2.65,9.6.16,20.78-2.88,29.18-7.33,1.15-.61,5.69-2.6,4.7-4.38-7.42,2.18-17.3,8.06-24.73,9.06Z"/>
    <path class="cls-6" d="M1646.12,2157.01c-59.5-18.8-122.08-27.92-184.28-33.59-97.01-8.84-210.63-11.55-307.18.15-23.21,2.81-45.54,8.6-68.48,12.18-1.37.21-4.25,1.73-3.95-.69,49.19-20.08,98.22-45.03,143.65-72.61,21.99-13.35,43.92-27.7,64.02-43.72,30.62-24.42,86.5-88.84,129.98-70.74,17.99,7.49,9.83,21.87,23.69,29.47,25.39,13.92,64.89-14.88,85.21-29.25,46.16-32.66,110.76-93.9,173.06-77.1,15.45,4.17,41.96,27.14,41.96,43.64v27.13l-2.6,1.31c-20.87-18.47-40.54-22.02-61.83-1.93-25.07,23.67-17.18,51.76-4.41,79.24,28.69,61.71,83.54,105.65,143.07,136.49h-125.02c-15.45-3.41-31.04-7.09-46.61-9.96-8.18-1.51-20.31-4.09-28.25-4.3-3.64-.1-3.68.55-.1,1.4,15.1,3.59,30.44,7.56,45.01,12.86h-16.93ZM1549.77,1959.33c12.45-8.27,23.12-18.99,35.26-27.67,28.75-20.55,79.23-47.12,115.21-35.71,4.76,1.51,11.37,6.76,14.53,7.57,2.33.6,2.87.02,4.25-1.68-7.97-17.94-35.15-20.63-52.57-18.6-26.6,3.09-83.66,45.64-105,63.79-1.76,1.5-13.18,10.62-11.69,12.3ZM1693,1903.79c-.32-.31-7.42-2.36-8.57-2.49-8.28-.97-22.36,2.89-30.23,6.02-1.97.79-3.53-.76-2.85,2.91,12.82-4.17,26.57-6.62,40.02-4.16,2.61.48,2.27-1.65,1.64-2.28ZM1708.63,2107.9c-13.35-12.97-28.86-22.93-40.35-38.13-23.45-31.03-39.91-84.98-11.77-117.55-4.06-4.9-10.16,3.35-12.39,7.07-25.71,42.85,10.41,110.36,46.39,137.53,1.9,1.44,17.23,11.87,18.12,11.08ZM1293.2,2036.84l50.11-36.19c12.55-7.39,40.02-20.81,53.97-13.44,3.12,1.65,5.21,6.47,9.15,7.73,18.46,5.89,19.81-23.56-3.3-26.44-14.63-1.83-37.97,10.61-50.43,18.22-21.57,13.19-41.9,32.19-59.5,50.13ZM1612.25,2060.11c-4.29-16.86-9.32-33.52-10.14-51.03l4.3-26.48c-4.92,2.33-6.04,4.81-6.83,10.02-2.74,18.21,1.6,46.66,9.71,63.33.75,1.53.69,3.82,2.96,4.16ZM1384.35,2007.13c.37-1.82-.53-2.88-1.89-3.91-11.48-8.71-41.32,14.11-50.19,21.99,17.24-5.81,31.89-24.56,52.08-18.08ZM1758.12,2141.52c-57.72-8.09-111.61-32.06-167.99-45.89-53.57-13.14-101.91-17.17-156.95-14.86-18.47.77-36.87,1.96-55.33,2.6l1.97,2.63c52.3-6.14,104.07-4.83,155.88,4.2,57.66,10.05,111.33,32.01,167.45,45.76,12.3,3.01,38.88,9.49,50.46,8.17,1.95-.22,4.01-.26,4.51-2.62ZM1314.03,2091.13l-18.5,1.65-14.05,3.49c9.24-.49,18.87-1.1,28-2.56,1.94-.31,4.02-.07,4.55-2.58Z"/>
    <path class="cls-6" d="M2346.77,2157.01c76.02-18.56,151.43-45.6,231.21-40.11,105.19,11.65,201.13,40.26,308.59,29.76,28.98-2.83,57.88-8.44,86.6-12.93.31-2.25-2.96-1.22-4.54-1.28-16.45-.66-33.12.85-49.55.05-75.16-3.65-148.49-43.28-219.69-64.99-59.28-18.08-123.37-29.62-185.21-33.31l-48.89,1.34,11.22-2.41c129.9-19.94,244,42.39,362.54,76.71,81.22,23.52,174.85,19.96,255.25-5.17,24.57-7.68,47.79-19.41,72.93-25.18l-28.56,17.52c-9.09,8.87-19.53,15.35-14.72,29.93,7.04,21.31,55.93,24.67,74.54,21.01v9.04h-72.93c-9.79-11.24-23.82-20.4-20.2-37.48-33.88,18.55-72.07,26.26-108.73,37.48h-649.85ZM2605.92,2135.06c-22.03-4.74-45.75-5.98-68.35-5.17-13.77.49-30.28,2.06-43.91,4.24-9.47,1.51-22.84,4.18-31.81,7.2-1.71.58-3.98.37-4.38,2.75,39.47-10.54,80.96-12.09,121.82-10.38,6.89.29,15.14,2.05,22.11,2.63,1.43.12,4.86.94,4.52-1.26Z"/>
    <path class="cls-6" d="M0,2157.01c81.59-23.83,143.29-81.45,228.93-95.23,54.86-8.83,95.18,1.45,144.41,23.95,22.08,10.09,71.27,34.31,88.3,49.35,1.6,1.41,3.71,2.65,3.28,5.13-13.45-3-26.57-7.92-40.09-11.25-39.03-9.62-89.86-17.61-129.47-10.33-33.06,6.08-59.81,27.08-90.89,38.38H0ZM372.46,2102.73c-1.44-2.77-6.04-3.8-8.85-4.78-31.83-11.14-78.65-16.72-111.25-7.76-17.98,4.94-29.55,13.83-45.27,22.27-8.51,4.57-18.57,7.9-26.07,13.53,18.64-6.14,35.58-16.65,54.02-23.27,38.97-13.97,79.3-13.84,119.45-4.77,5.99,1.35,11.8,4.11,17.96,4.78Z"/>
    <path class="cls-6" d="M2169.65,2157.01c-.83-3.24,6.97-4.01,9.11-4.54,44.42-10.92,87.11-19.27,131.24-32.59,71.65-21.63,148.65-58.84,223.59-62.42,93.49-4.47,164.2,30.7,250.14,58.16,1.71.55,4.06.03,4.52,2.61-7.27.81-13.63-.8-20.6-2.16-38.63-7.56-75.3-24.81-114.57-31.04-94.43-14.99-181.61,19.9-271.39,40.09-59.22,13.32-119.67,23.53-180,30.71l-2.09,1.18h-29.95ZM2522.57,2073.04c-36.03,3.35-70.36,16.47-105.18,25.48l-48.48,15.84,65.12-14.83,88.54-26.49Z"/>
    <path class="cls-6" d="M474.04,2157.01h-213.58c7.84-3.57,17.52-5.51,26-7.15,58.3-11.27,118.1-12.01,175.87,2.62,3.71.94,8.93,1.9,11.71,4.53Z"/>
    <path class="cls-6" d="M2292.07,2076.92c-.34,2.24-2.64,2.2-4.19,2.94-25.22,12.02-60.23,24.64-87.01,35.12-104.69,40.99-240.23,50.89-350.04,25.65-32.14-7.39-67.02-18.15-94-37.24l56,20.67c86.25,15.67,177.55,20.34,264.64,8.03l70.05-18.99c-95.2,3.96-189.43-16.88-277.37-51.07l-10.43-5.78c56.09,18.94,113.44,35.01,172.71,41.17,73,7.59,164.66,5.42,234.91-14.69,8.12-2.32,16.54-3.84,24.74-5.81Z"/>
    <path class="cls-6" d="M1992.53,2129.89c.3,2.25-2.95,1.21-4.54,1.28-59.61,2.43-121.21-1.94-179.64-13.01l-41.11-15.4c21.47,5.16,43.94,1.06,65.74,2.59,37.5,2.63,80.44,15.08,118.72,20.47,13.49,1.9,27.23,3.21,40.83,4.07Z"/>
    <path class="cls-6" d="M2290.76,2054.95l-18.23,7.09c-57.1,14-116.32,18.93-175.21,18.79l-81.33-7.82c.89-2.29,7.72-1.45,9.82-1.34,61.56,3.23,124.7-1.91,186.16-7.7,26.31-2.48,52.49-6.55,78.79-9.02Z"/>
    <path class="cls-6" d="M2432.72,2052.37c.19,1.95-3.18,2.05-4.65,2.47-19.04,5.42-37.98,7.23-57.23,14.29-24.32,8.93-44.97,25.12-68.77,35.14-19.98,8.4-42.43,13.47-63.39,19.14l116.86-53.94c24.74-9.24,50.5-16.63,77.17-17.09Z"/>
    <path class="cls-6" d="M1622.68,1830.15c1.89,1.84-.12,2.34-1.93,2.57-8.94,1.13-20.28.26-29.96,1.3-46.68,5.04-91.2,19.17-133.5,38.73,9.28-6.43,21.21-12.17,31.66-17.03,41.01-19.09,87.91-37.7,133.73-25.58Z"/>
    <path class="cls-6" d="M1756.81,1880.52c-15.48-13.24-33.16-23.47-51.61-32.12l-43.44-14.38c27.59,2.39,59.02,11.56,80.75,29.04,2.37,1.91,16.22,15.16,14.3,17.46Z"/>
    <path class="cls-7" d="M712.36,1522.64l-24.79,18.66c-3.72,5.11-9,9.17-7.75,16.2,6.39,1.05,9.29-5.44,13.7-9,30.37-24.53,54.53-33.16,94.71-26.85,17.99,2.83,59.26,16.52,51.79,40.41-3.65,4.13-19.57-4.61-25.08-6.18-17.13-4.87-35.21-5.54-52.12.64-2.17.79-22.67,10.28-19.18,13.9,14.68-5.75,30.03-10.29,46.05-8.88,14.19,1.25,38.67,12.03,48.55,22.25,11.71,12.13-3.81,5.92-10.6,5.9-4.06,0-9.85,1.29-12.35,4.62.87.75,1.61,2.11,2.6,2.56,3.51,1.6,23.39,1.13,30.25,2.29,20.14,3.41,49.69,16.44,59.67,35.12.64,1.21,2.38,3.69.58,4.6-14.71-14.71-50.69-27.79-70.2-19.25-5.95,2.61-9.75,8.48-5.84,14.59,4.13,6.46,35.87,15.6,45.01,19.93,25.47,12.09,47.34,34.01,47.96,63.53-7.19-11.7-30.05-37.65-44.3-37.6-21.7.07,4.76,32.33,8.3,39.73,9.55,20.02,6.2,42.79-2.44,62.47-2.22.33-1.39-3.08-1.27-4.49.83-9.88,1.87-16.44-.6-26.57-2.14-8.75-11.57-24.06-19.21-11.18-2.04,3.44-1.26,9.26-4.93,8.66-2.61-13.91-20.36-52.26-36.05-52.56-2.7-.05-6.89,1.75-8.34,4.01-1.69,2.64.1,6.37-3.14,5.9-9.08-12.41-40.14-36.9-55.71-29.4-8.78,4.23-5.03,15.99.35,21.64-28.39-1.71-38.87-31-54.16-48.97-5.8-6.82-16.6-14.36-22.52-3.18-1.36,2.56-.58,6.33-2.75,6.94-8.63-13.99-22.1-34.63-40.99-33.64-9.92.52-15.63,9.17-13.45,18.52.71,3.05,3.76,4.27,3.62,7.37-15.27-.08-25.18-15.99-35.84-24.51-10.62-8.49-19.91-11.73-33.82-10.35-25.74,2.55-23.67,25.37,1.93,21.96-1.78,7.26-13.8,9.53-20.35,10.16-9.7.94-22.32-1.54-31.15,1.4-6.06,2.02-13.45,11.63-14.61,17.8-5.1,27.22,22.21,38.81,43.96,27.48,3.19,3.16-18.1,14.36-20.47,15.21-8.48,3.05-19.79,5.47-28.18,1.41-11.08-5.36-11.97-19.12-28.74-16.54-9.12,1.41-17.02,13.53-18.98,21.87-2.66-1.48-2.11-4.72-5.22-7.07-9.09-6.85-19.05-1.35-23.68,7.46-13.7,26.1,2.91,68.38,36.07,65.49,4.21-.37,8.34-3.04,12.37-1.93-4.89,14.68-18.33,26.58-34.5,26.6-10.73.01-26.65-8.02-35.83,2.18-14.54,16.17,9.67,40.52,26.05,23.56-.35,15.84-22.33,19.29-33.22,10.36-5.2-4.27-5.27-11.29-14.32-10.46-13.39,1.23-24.08,34.8-25.22,46.12-1.34,13.29-.69,57.23,17.52,59.87,6.39.93,10.16-4.27,13.51-.47-4.98,20.99-24.01,14.43-33.56-.35-3.29-5.1-6.21-15.08-9.25-19.01-.96-1.25-2.05-1.18-3.24-.67-3.06,1.31-21.3,34.29-25.75,40.35-15.74,21.42-40.76,40.09-68.78,35.76-.49-2.15.7-2.61,1.97-3.84,73.36-70.7,63.45-124.87,92.18-213.47,22.83-70.43,79.27-150,139.85-193.3,68.01-48.61,161.04-72.88,243.94-55.78Z"/>
    <path class="cls-7" d="M716.27,1755.2c-64.8,57.64-56.92,156.07-17.38,225.9l23.88,37.66c-45.78-47.79-70.39-108.14-64.94-174.9,2.93-35.81,24.35-74.33,58.44-88.66Z"/>
    <path class="cls-7" d="M532.63,2018.76c-6.95-8.13-13.79-18.63-19.27-28.03-29.49-50.59-44.02-109.09-40.68-167.77,1.42-24.96,7.94-57.82,28.06-74.23,1.66.8.1,3.58-.27,4.9-2.68,9.36-7.72,18.32-10.43,28.41-15.01,55.74-3.38,135.52,18.94,188.5,6.97,16.54,17.72,31.51,23.66,48.22Z"/>
    <path class="cls-7" d="M623.8,1707.39l-26.26,49.52c-13,29.41-20.43,61-21.97,93.2-.95,19.89-.67,41.48,3.94,60.8l-2.57.62c-13.11-59.25-17.13-119.7,16.38-173.02,7.09-11.28,17.38-27.07,30.48-31.12Z"/>
    <path class="cls-7" d="M442.77,2003.26c-17.54-19.25-29.9-45.98-35.56-71.3-5.01-22.38-7.16-45.22,1.73-66.94,2.32-.3,1.27,2.9,1.14,4.34-2.63,28.56,5.84,73.18,16.45,100.28,4.55,11.62,11.12,22.29,16.25,33.61Z"/>
    <path class="cls-7" d="M372.46,2102.73c-6.17-.67-11.97-3.42-17.96-4.78-40.15-9.07-80.49-9.2-119.45,4.77-18.45,6.61-35.38,17.13-54.02,23.27,7.5-5.62,17.57-8.96,26.07-13.53,15.72-8.44,27.29-17.33,45.27-22.27,32.6-8.96,79.42-3.37,111.25,7.76,2.81.98,7.41,2.01,8.85,4.78Z"/>
  </g>
  <rect class="cls-11" x="1927.44" y="1747.07" width="59.67" height="53.82"/>
  <rect class="cls-2" x="1801.96" y="1740.72" width="37.09" height="352.35"/>
  <rect class="cls-2" x="1942.66" y="1540.76" width="37.09" height="541.03" transform="translate(3772.48 -149.93) rotate(90)"/>
  <rect class="cls-11" x="1791.48" y="2085.01" width="58.05" height="74.99"/>
  <rect class="cls-2" x="2086.05" y="1740.72" width="37.09" height="352.35"/>
  <rect class="cls-11" x="2075.57" y="2085.01" width="58.05" height="74.99"/>
  <path class="cls-2" d="M2227.38,1683.35v29.02c-170.03,86.25-370.97,86.18-540.94-.16l-.09-.06v-29.02l.09.03c21.82,11.08,44.15,20.75,66.86,28.99,131.63,47.78,275.98,47.78,407.64,0,22.55-8.18,44.75-17.78,66.44-28.8Z"/>
  <rect class="cls-11" x="1677.69" y="1678" width="17.34" height="41.12"/>
  <rect class="cls-11" x="2218.72" y="1678" width="17.34" height="41.12"/>
  <path class="cls-11" d="M2247.44,1660.68v28.05c-182.63,83.37-398.47,83.31-581.04-.15l-.1-.06v-28.05l.1.03c23.44,10.71,47.42,20.06,71.81,28.02,141.38,46.19,296.44,46.19,437.86,0,24.22-7.91,48.07-17.19,71.37-27.84Z"/>
  <rect class="cls-11" x="1690.69" y="1792.73" width="21.13" height="58.76"/>
  <rect class="cls-11" x="2210.59" y="1792.73" width="21.13" height="58.76"/>
  <rect class="cls-11" x="1711.82" y="1819.64" width="374.22" height="10.18"/>
  <rect class="cls-11" x="1904.03" y="1917.62" width="374.22" height="10.18" transform="translate(4013.85 -168.43) rotate(90)"/>
  <rect class="cls-11" x="1646.85" y="1917.62" width="374.22" height="10.18" transform="translate(3756.67 88.75) rotate(90)"/>
  <path class="cls-3" d="M3023.87,1714.7c22.91-33.28,50.81-63.08,96.04-58.05,11.2,1.24,20.8,7.77,29.05,14.84,7.97-6.57,16.51-14.36,26.77-16.9-7.61-41.43,27.66-71.12,65.53-76.57,12.76-1.84,46.09-1.93,55.02,8.25,2.58,2.94,2.71,6.12,4.7,9.1,6.17-1.27,12.03-4,18.33-1.66-5.12-31.08,16.91-64.29,42.86-79.54,45.05-26.47,116.87-12.18,156,19.97,9.97,8.19,17.9,18.37,28.2,26.2,24.88,18.91,79.96,44.53,94.49,69.65,5.98,10.34,4.09,21.11,15.26,28.81,7.48,5.15,17.36,8.48,25.53,13.88,11.78,7.78,18.24,16.38,32.34,21.12,19.28,6.48,38.72,7.29,54.61,22.3,5.32,5.03,8.54,12.08,14.86,16.09,18.3,8.87,37.33,16.6,56.4,23.8.59,1.12-.93,2.54-.93,2.8-.14.75.17,1.38.94,1.88-.01.42.04.78-.47.93-13.71,2.1-27.56,1.22-41.3,1.85-59.86,2.73-120.14,4.23-180,5.7-124.81,3.07-249.38,2.47-374.23.86-98.75-1.27-197.74-4.98-296.38-.86-25.13,1.05-49.88,3.68-75.06,4.66-35.57,1.39-71.38,1-106.97,2.77-10.11.5-20.2,2.96-30.44,1.91-2.45-1.96,7.61-4.05,8.43-4.23,21-4.56,48.74-3.39,68.02-12.64,18.78-9.01,24.26-29.01,44.82-36.77,17.48-6.6,26.58-2.1,43.34-.77,13.86,1.1,21.56-5.58,34.21-8.91,19.17-5.05,39.81-5.26,59.31-2.07,7.29,1.19,18.1,2.97,23.24,8.17-32.56-3.74-68.15-8.85-98.48,6.57-3,4.27-12.47,3.89-17.77,3.58l-17.1-2.13c-14.97-1.96-29.53,3.41-39.76,14.61-7.6,9.4-16.36,17.17-26.29,23.31,45.23-2.66,90.34-7.07,135.35-13.2,26.51-8.3,49.03-12.6,77.08-11.02,28.76,4.29,57.41,5.9,85.95,4.83,25.96-6.05,51.24-14.83,75.83-26.35,6.45-2.41,42.74-15.87,45.2-13.59.36.33.64.76.89,1.21l1.08-1.88h16.34l1.34,1.88c-.54-4.65,6.06-3.34,4.44,1.13-8.23,8.52-16.47,17-24.72,25.46-8.87,11.78,14.31,5.67,19,.98,14.74-12.65,29.77-16.36,48.63-17.42,6.02-1.14,12.99-3.21,16.13-8.9,9.8-17.76-14.08-12.65-22.7-8.27-7.53-1.69,2.27-14.84,5.18-17.86,12.53-12.99,26.22-14.18,43.46-13.88,7.48-.2,13.26-2.56,17.99-8.37,7.69-5.44,12.18,1.6,6.26,8.19-10.74,10.52-15.62,24.48-16.06,39.49,11.83-8.63,24.88-15.18,39.83-15.64,10.39.99,13.25.67,20.53-6.45,12.05-15.57,24.88-25.7,42.79-33.7,8.23-3.7,11.96-8.65,11.19-14.83-7.13-9.6-3.28-15.73,11.56-18.39,16.35-6.52,8.12-13.96-5.68-12.94-21.63,1.6-45.72,11.83-58.71,29.57-8.38,2.33.51-18.09,2.5-20.98,5.35-7.75,12.08-12.78,20.45-16.99,14.65-5.42,27.03-13.33,37.15-23.72l2.59-.61,1.88-3.75-1.57-1.51c.3-35.42-52.63-41.81-75.24-21.63-8.83,11-25.46,15.83-13.78-4.04,10.99-14.98,27.02-37.14-5.24-27.54-32.12,10.1-59.46,43.55-58.04,77.9,2.8,5.99,2.61,10.41-5.43,9.64-16.19-4.3-31.17,8.89-40.43,20.85,3.81,2.53,9.04,7.39,2.35,9.52-23.47-3.64-39.97,13.82-47.3,34.57-9.59,2.02-5.01-13.41-2.82-18.65,5.89-14.15,22.69-27.33,38.12-27.34,4.31-10.97,12.73-18.87,22.16-25.83-4.6-6.6-15.1-8.64-22.79-9.63-42.58-5.47-87.26,17.7-87.51,64.3,5.28,1.17,7.06,4.94,1.7,7.66-6.62,3.24-13.06,6.65-19.33,10.22-12.87,5.87-21.45,17.73-31.88,26.74-7.55,6.53-26.45,22.03-36.12,22.03h-31.42c.99-1.95,4.4-2.87,6.37-3.48,17.83-5.59,24.78-1.47,42.32-13.95,2.71-1.93,21.93-17.6,22.59-18.91.95-1.91.62-2.19-.49-3.91-.58-.89-10.14-11.31-10.81-11.74-6.81-4.38-25.87-2.01-33.71-.06-35.67,8.89-42.06,28.67-65.65,50.18-3.21,2.42-3.99,1.5-1.88-1.88Z"/>
  <g>
    <path class="cls-11" d="M1573.45,753.06v-184.04h135.39v20.02h-114.54v61.72h102.3v20.29h-102.3v61.99h114.54v20.02h-135.39Z"/>
    <path class="cls-11" d="M1748.59,753.06v-120.65h-28.36v-18.35h28.36v-49.76h20.85v49.76h31.97v18.35h-31.97v120.65h-20.85Z"/>
    <path class="cls-11" d="M1883.14,755.28c-14.09,0-26.41-3.2-36.97-9.59-10.56-6.39-18.76-15.06-24.6-25.99-5.84-10.93-8.76-22.98-8.76-36.14s2.78-25.44,8.34-36.28c5.56-10.84,13.53-19.46,23.91-25.85,10.38-6.39,22.61-9.59,36.7-9.59s26.55,3.2,36.83,9.59c10.29,6.39,18.21,15.01,23.77,25.85,5.56,10.84,8.34,22.94,8.34,36.28v8.34h-116.48c1.11,8.16,3.75,15.62,7.92,22.38,4.17,6.77,9.77,12.14,16.82,16.12,7.04,3.99,15.2,5.98,24.46,5.98,9.82,0,18.07-2.18,24.74-6.53,6.67-4.35,11.86-9.96,15.57-16.82h22.8c-4.82,12.42-12.47,22.57-22.93,30.44-10.47,7.88-23.96,11.81-40.45,11.81ZM1834.49,672.44h94.52c-1.86-11.86-6.86-21.78-15.01-29.75-8.16-7.97-18.9-11.95-32.25-11.95s-24.05,3.99-32.11,11.95c-8.06,7.97-13.11,17.89-15.15,29.75Z"/>
    <path class="cls-11" d="M1976.27,753.06v-139h20.85v34.19c.74-2.41,2.18-5.6,4.31-9.59,2.13-3.98,5.23-8.01,9.31-12.09s9.22-7.55,15.43-10.42c6.21-2.87,13.57-4.31,22.1-4.31h1.39v20.85h-2.5c-10.38,0-19.32,2.83-26.83,8.48-7.51,5.66-13.25,12.97-17.24,21.96-3.99,8.99-5.98,18.58-5.98,28.77v61.16h-20.85Z"/>
    <path class="cls-11" d="M2072.18,753.06v-139h20.85v21.68c5-6.67,11.12-12.32,18.35-16.96,7.23-4.63,16.49-6.95,27.8-6.95,9.63,0,18.67,2.27,27.1,6.81,8.43,4.54,15.29,11.31,20.57,20.29,5.28,8.99,7.92,20.06,7.92,33.22v80.9h-20.85v-80.34c0-12.6-3.61-22.75-10.84-30.44-7.23-7.69-16.59-11.54-28.08-11.54-7.78,0-14.83,1.76-21.13,5.28-6.3,3.52-11.35,8.48-15.15,14.87-3.8,6.39-5.7,13.76-5.7,22.1v80.06h-20.85Z"/>
    <path class="cls-11" d="M2291.24,755.28c-14.09,0-26.41-3.2-36.97-9.59-10.56-6.39-18.76-15.06-24.6-25.99-5.84-10.93-8.76-22.98-8.76-36.14s2.78-25.44,8.34-36.28c5.56-10.84,13.53-19.46,23.91-25.85,10.38-6.39,22.61-9.59,36.7-9.59s26.55,3.2,36.83,9.59c10.29,6.39,18.21,15.01,23.77,25.85,5.56,10.84,8.34,22.94,8.34,36.28v8.34h-116.48c1.11,8.16,3.75,15.62,7.92,22.38,4.17,6.77,9.77,12.14,16.82,16.12,7.04,3.99,15.2,5.98,24.46,5.98,9.82,0,18.07-2.18,24.74-6.53,6.67-4.35,11.86-9.96,15.57-16.82h22.8c-4.82,12.42-12.47,22.57-22.93,30.44-10.47,7.88-23.96,11.81-40.45,11.81ZM2242.59,672.44h94.52c-1.86-11.86-6.86-21.78-15.01-29.75-8.16-7.97-18.9-11.95-32.25-11.95s-24.05,3.99-32.11,11.95c-8.06,7.97-13.11,17.89-15.15,29.75Z"/>
    <path class="cls-11" d="M2384.37,753.06v-194.6h20.85v194.6h-20.85Z"/>
  </g>
  <rect class="cls-10" x="0" y="1320.37" width="3839.23" height="836.64"/>
  <rect class="cls-8" x="1929.01" y="696" width="16.77" height="539.23"/>
</svg>