<?xml version="1.0" encoding="UTF-8"?>
<svg id="Calque_1" data-name="Calque 1" xmlns="http://www.w3.org/2000/svg" viewBox="0 0 20.92 17">
  <defs>
    <style>
      .cls-1 {
        fill: #353535;
      }
    </style>
  </defs>
  <path class="cls-1" d="M20.92,2.01c-.77.34-1.6.57-2.46.68.89-.53,1.57-1.37,1.89-2.37-.83.49-1.75.85-2.73,1.04-.78-.83-1.9-1.36-3.13-1.36-2.37,0-4.29,1.92-4.29,4.29,0,.34.04.66.11.98-3.57-.18-6.73-1.89-8.85-4.48-.37.63-.58,1.37-.58,2.16,0,1.49.76,2.8,1.91,3.57-.7-.02-1.37-.22-1.94-.54,0,.02,0,.04,0,.05,0,2.08,1.48,3.81,3.44,4.21-.36.1-.74.15-1.13.15-.28,0-.55-.03-.81-.08.55,1.7,2.13,2.95,4.01,2.98-1.47,1.15-3.32,1.84-5.33,1.84-.35,0-.69-.02-1.02-.06,1.9,1.22,4.16,1.93,6.58,1.93,7.89,0,12.21-6.54,12.21-12.21,0-.19,0-.37-.01-.56.84-.61,1.57-1.36,2.14-2.22Z"/>
</svg>