<?xml version="1.0" encoding="UTF-8"?>
<svg id="Calque_1" data-name="Calque 1" xmlns="http://www.w3.org/2000/svg" viewBox="0 0 20 20">
  <defs>
    <style>
      .cls-1 {
        fill: #353535;
        fill-rule: evenodd;
      }
    </style>
  </defs>
  <path class="cls-1" d="M10,0C4.48,0,0,4.48,0,10s4.48,10,10,10,10-4.48,10-10S15.52,0,10,0ZM5.07,16.28c.43-.9,3.05-1.78,4.93-1.78s4.51.88,4.93,1.78c-1.36,1.08-3.07,1.72-4.93,1.72s-3.57-.64-4.93-1.72ZM16.36,14.83c-1.43-1.74-4.9-2.33-6.36-2.33s-4.93.59-6.36,2.33c-1.02-1.34-1.64-3.01-1.64-4.83C2,5.59,5.59,2,10,2s8,3.59,8,8c0,1.82-.62,3.49-1.64,4.83ZM10,4c-1.94,0-3.5,1.56-3.5,3.5s1.56,3.5,3.5,3.5,3.5-1.56,3.5-3.5-1.56-3.5-3.5-3.5ZM10,9c-.83,0-1.5-.67-1.5-1.5s.67-1.5,1.5-1.5,1.5.67,1.5,1.5-.67,1.5-1.5,1.5Z"/>
</svg>